<svg version="1.1" 
	fill="#ccc"
	xmlns="http://www.w3.org/2000/svg" 
	xmlns:xlink="http://www.w3.org/1999/xlink">
    <defs>
	<svg id="vk"
		viewBox="0 0 94 94"
		xml:space="preserve">
		<path d="M89,0H5C2.238,0,0,2.239,0,5v84c0,2.761,2.238,5,5,5h84c2.762,0,5-2.239,5-5V5C94,2.239,91.762,0,89,0z M74.869,52.943
			c2.562,2.5,5.271,4.854,7.572,7.617c1.018,1.22,1.978,2.48,2.709,3.899c1.041,2.024,0.101,4.247-1.713,4.366l-11.256-0.003
			c-2.906,0.239-5.22-0.931-7.172-2.918c-1.555-1.585-3.001-3.277-4.5-4.914c-0.611-0.673-1.259-1.306-2.025-1.806
			c-1.534-0.996-2.867-0.692-3.748,0.909c-0.896,1.63-1.103,3.438-1.185,5.255c-0.125,2.655-0.925,3.348-3.588,3.471
			c-5.69,0.268-11.091-0.596-16.108-3.463c-4.429-2.53-7.854-6.104-10.838-10.146c-5.816-7.883-10.27-16.536-14.27-25.437
			c-0.901-2.005-0.242-3.078,1.967-3.119c3.676-0.073,7.351-0.063,11.022-0.004c1.496,0.023,2.485,0.879,3.058,2.289
			c1.985,4.885,4.421,9.533,7.471,13.843c0.813,1.147,1.643,2.292,2.823,3.103c1.304,0.896,2.298,0.601,2.913-0.854
			c0.393-0.928,0.563-1.914,0.647-2.906c0.292-3.396,0.327-6.792-0.177-10.175c-0.315-2.116-1.507-3.483-3.617-3.883
			c-1.074-0.204-0.917-0.602-0.395-1.215c0.906-1.062,1.76-1.718,3.456-1.718l12.721-0.002c2.006,0.392,2.452,1.292,2.725,3.311
			l0.012,14.133c-0.021,0.782,0.391,3.098,1.795,3.61c1.123,0.371,1.868-0.53,2.54-1.244c3.048-3.235,5.22-7.056,7.167-11.009
			c0.857-1.743,1.6-3.549,2.32-5.356c0.533-1.337,1.367-1.995,2.875-1.971l12.246,0.013c0.36,0,0.729,0.004,1.086,0.063
			c2.062,0.355,2.627,1.243,1.99,3.257c-1.004,3.163-2.959,5.799-4.871,8.441c-2.043,2.825-4.224,5.557-6.252,8.396
			C72.411,49.38,72.561,50.688,74.869,52.943z"/>
	</svg>
	<svg id="fb"
		viewBox="0 0 60.734 60.733"
		xml:space="preserve">
		<path d="M57.378,0.001H3.352C1.502,0.001,0,1.5,0,3.353v54.026c0,1.853,1.502,3.354,3.352,3.354h29.086V37.214h-7.914v-9.167h7.914
			v-6.76c0-7.843,4.789-12.116,11.787-12.116c3.355,0,6.232,0.251,7.071,0.36v8.198l-4.854,0.002c-3.805,0-4.539,1.809-4.539,4.462
			v5.851h9.078l-1.187,9.166h-7.892v23.52h15.475c1.852,0,3.355-1.503,3.355-3.351V3.351C60.731,1.5,59.23,0.001,57.378,0.001z"/>
	</svg>
	<svg id="sk"
		viewBox="0 0 29.94 29.94"
		xml:space="preserve">
		<path d="M19.661,14.248c-1.25-0.737-2.643-1.176-4.175-1.317c-1.453-0.21-2.658-0.609-3.062-1.03
			c-0.403-0.421-0.486-1.345-0.083-1.942s1.469-1.062,3.199-0.868c1.314,0.277,2.168,0.919,3.141,1.624c0,0,1.061,0.411,1.72-0.407
			c0.783-1.076-0.019-1.892-0.019-1.892S19.62,7.492,18.693,7.14c-0.928-0.351-2.236-0.692-3.922-0.692
			c-1.452,0-2.922,0.424-4.298,1.269c-1.376,0.846-2.45,2.134-2.45,3.531c0,1.544,1.046,2.633,2.257,3.264
			c1.211,0.632,2.543,1.019,3.995,1.159c1.613,0.141,2.648,0.702,3.048,1.299s0.399,1.193,0,1.79s-1.351,1.033-2.965,1.033
			c-1.937-0.14-3.487-0.963-4.294-1.806c0,0-0.847-0.907-1.901,0.019c-1.256,1.034-0.271,1.977-0.271,1.977
			c0.808,0.701,1.622,1.373,2.752,1.794c1.13,0.421,2.538,0.823,4.226,0.823c1.775,0,3.33-0.647,4.666-1.56
			c1.335-0.913,2.098-2.001,2.098-3.265C21.633,16.161,20.912,14.985,19.661,14.248z"/>
		<path d="M27.56,0.684H2.383C1.065,0.684,0,1.748,0,3.064v23.813c0,1.312,1.065,2.379,2.383,2.379H27.56
			c1.312,0,2.38-1.066,2.38-2.379V3.064C29.939,1.748,28.871,0.684,27.56,0.684z M25.609,14.444c0,6.094-5.032,11.172-11.127,11.172
			c-0.537,0-1.768-0.276-1.768-0.276l-0.105,0.058c0,0-1.252,1.349-3.512,1.323c-3.911,0-6.991-3.563-6.991-7.475
			c0-1.643,0.563-3.154,1.502-4.355l0.071-0.155c-0.002-0.096-0.004-0.193-0.004-0.291c0-6.094,4.713-10.943,10.807-10.943
			c0.615,0,1.219,0.05,1.806,0.147l0.067,0.041c1.035-0.592,2.453-1.149,3.73-1.149c3.912,0,7.256,3.299,7.256,7.21
			c0,1.643-0.86,3.154-1.799,4.356C25.543,14.105,25.609,14.289,25.609,14.444z"/>
	</svg>
	<svg id="in"
		viewBox="0 0 430.117 430.117"
		xml:space="preserve">
		<path d="M398.355,0H31.782C14.229,0,0.002,13.793,0.002,30.817v368.471
			c0,17.025,14.232,30.83,31.78,30.83h366.573c17.549,0,31.76-13.814,31.76-30.83V30.817C430.115,13.798,415.904,0,398.355,0z
			 M130.4,360.038H65.413V165.845H130.4V360.038z M97.913,139.315h-0.437c-21.793,0-35.92-14.904-35.92-33.563
			c0-19.035,14.542-33.535,36.767-33.535c22.227,0,35.899,14.496,36.331,33.535C134.654,124.415,120.555,139.315,97.913,139.315z
			 M364.659,360.038h-64.966V256.138c0-26.107-9.413-43.921-32.907-43.921c-17.973,0-28.642,12.018-33.327,23.621
			c-1.736,4.144-2.166,9.94-2.166,15.728v108.468h-64.954c0,0,0.85-175.979,0-194.192h64.964v27.531
			c8.624-13.229,24.035-32.1,58.534-32.1c42.76,0,74.822,27.739,74.822,87.414V360.038z M230.883,193.99
			c0.111-0.182,0.266-0.401,0.42-0.614v0.614H230.883z"/>
	</svg>
</defs>
</svg>
